<svg width="375" height="184" viewBox="0 0 375 184" fill="none" xmlns="http://www.w3.org/2000/svg">
<mask id="mask0_1_1507" style="mask-type:luminance" maskUnits="userSpaceOnUse" x="0" y="0" width="458" height="184">
<path d="M0 0H457.876V184H0V0Z" fill="white"/>
</mask>
<g mask="url(#mask0_1_1507)">
<path d="M4.44472 103.555L45.9873 102.759L43.5838 104.072L57.0261 83.9927C57.4314 83.3919 58.0322 82.9587 58.7169 82.7771C60.8548 82.1902 62.2382 83.9229 62.3919 84.1045C63.6355 85.5577 65.0887 88.9113 66.7515 93.3409L66.7795 93.4247L79.1039 129.56L73.3888 130.007L94.5723 8.59298C94.8238 7.15373 96.0954 6.10574 97.5626 6.14766C99.0298 6.18958 100.245 7.29347 100.427 8.74669L121.135 179.374L115.281 179.276L126.222 108.949L126.25 108.823C126.529 107.384 127.34 106.294 128.346 105.553C129.659 104.589 131.252 104.254 132.37 104.086C132.426 104.072 132.44 104.072 132.468 104.072H132.482C133.991 103.863 139.119 103.947 147.573 104.519C147.391 104.505 147.293 104.547 147.293 104.547C147.293 104.547 147.405 104.505 147.629 104.31L146.818 105.414L159.758 75.5389C160.135 74.6726 160.889 74.0438 161.812 73.8202C163.349 73.4709 164.774 73.918 165.864 74.7564C167.359 75.8882 168.393 77.8026 169.176 79.7868L169.245 79.9824L176.609 103.108L176.512 102.829C176.581 102.996 176.959 103.681 180.564 104.142C185.552 104.771 208.259 106.182 248.963 106.643C248.921 106.643 248.893 106.643 248.893 106.657C249.019 106.615 249.578 106.266 250.486 104.883L250.29 105.246L258.283 88.3105L258.297 88.2965C258.437 88.0031 258.591 87.7236 258.786 87.4302L258.772 87.4441C259.946 85.7114 262.056 84.7613 264.306 85.8372L264.389 85.8791C265.13 86.2564 265.675 86.9131 265.913 87.6957L278.544 130.496L272.801 130.775L297.227 2.43077C297.492 1.0055 298.764 -0.0145515 300.231 0.0273692C301.684 0.0692899 302.886 1.17318 303.067 2.61242L325.676 181.736L319.807 181.638L332.244 103.611V103.541C332.481 102.256 333.18 101.292 333.976 100.607C334.982 99.7546 336.24 99.2655 337.302 98.9861C337.581 98.9022 337.875 98.8743 338.168 98.8743C345.965 99.0839 349.878 98.9441 350.758 98.7066C351.736 98.4271 349.165 98.7345 349.095 101.152C349.039 103.01 350.674 103.709 350.269 103.471C348.9 102.675 348.397 100.956 349.109 99.559L363.152 72.2272C363.502 71.5565 364.089 71.0535 364.787 70.802C366.66 70.1173 368.462 70.6483 369.762 71.8919C370.754 72.8281 371.425 74.1136 371.914 75.4132L371.928 75.4551L382.743 104.967L380.032 103.024L453.462 104.673C455.097 104.715 456.396 106.071 456.368 107.705C456.326 109.34 454.971 110.64 453.336 110.598L379.892 108.949C378.677 108.921 377.601 108.153 377.182 107.007L366.366 77.4952L366.38 77.5231C366.017 76.5729 365.738 76.2376 365.682 76.1817C365.807 76.3074 366.324 76.545 366.8 76.3633L368.434 74.9381L354.391 102.256L353.231 98.3433C353.245 98.3433 355.076 99.2515 355.02 101.32C354.936 103.975 352.03 104.492 352.351 104.408C350.381 104.953 345.309 104.995 338.001 104.799L338.867 104.687C338.154 104.883 337.875 105.078 337.819 105.12H337.833C337.833 105.106 338.015 104.939 338.084 104.603V104.533L325.662 182.574C325.425 184.027 324.153 185.089 322.686 185.075C321.205 185.047 319.975 183.944 319.793 182.476L297.199 3.35301L303.039 3.54863L278.614 131.893C278.363 133.235 277.217 134.227 275.861 134.296C274.492 134.366 273.248 133.486 272.871 132.173L260.225 89.3724L261.748 91.189C261.721 91.175 261.776 91.2029 261.748 91.189C262.587 91.5802 263.509 91.0353 263.691 90.7558C263.691 90.7558 263.677 90.7837 263.635 90.8536V90.8396L255.642 107.775C255.586 107.901 255.516 108.027 255.447 108.139C254.44 109.648 252.917 111.59 250.682 112.303C250.123 112.47 249.522 112.568 248.907 112.568C208.217 112.107 185.189 110.71 179.823 110.011C176.553 109.592 172.613 108.767 171.062 105.176L170.964 104.911L163.6 81.771L163.67 81.9666C162.957 80.1641 162.413 79.5772 162.287 79.4794C162.343 79.5073 162.692 79.7029 163.153 79.5912L165.193 77.8864L152.254 107.761C152.072 108.18 151.793 108.558 151.43 108.851C150.871 109.326 150.228 109.759 149.473 110.053C148.789 110.332 148.006 110.486 147.168 110.43C138.504 109.843 134.047 109.829 133.25 109.941H133.264C132.3 110.081 131.937 110.262 131.853 110.318C131.909 110.29 132.021 110.151 132.049 109.997L132.077 109.871L121.135 180.185C120.898 181.652 119.626 182.714 118.145 182.686C116.678 182.672 115.434 181.554 115.267 180.087L94.5444 9.45932L100.399 9.61303L79.2157 131.013C78.9921 132.354 77.8743 133.36 76.5328 133.458C75.1774 133.57 73.9338 132.745 73.5006 131.46L61.1762 95.339L61.2041 95.4368C59.4156 90.658 58.3117 88.4362 57.8785 87.9472C57.5152 87.514 58.4654 88.9812 60.2679 88.4921L61.9587 87.2765L48.5164 107.37C47.9715 108.166 47.0772 108.656 46.099 108.684L4.57048 109.48C2.93561 109.508 1.5802 108.208 1.55226 106.574C1.51034 104.939 2.80985 103.583 4.44472 103.555Z" fill="#B21C1C"/>
</g>
</svg>
