<svg width="319" height="184" viewBox="0 0 319 184" fill="none" xmlns="http://www.w3.org/2000/svg">
<path d="M19.3738 27.2693C19.8386 27.312 20.3347 27.3173 20.8021 27.3163C28.021 27.3017 35.3129 27.4774 42.5236 27.2307C42.3195 30.9028 42.4329 35.2985 42.4338 39.0248C42.4346 42.7681 42.331 47.0487 42.4701 50.7503C46.7512 50.7819 51.0323 50.7869 55.3135 50.7654C62.942 50.7563 68.1605 50.5596 75.5997 53.0377C84.9476 56.2068 92.8988 62.5315 98.0863 70.9246C104.468 81.2232 106.067 95.0501 102.185 106.519C98.9454 116.23 92.3267 124.457 83.5322 129.704C82.0911 130.572 79.8138 131.631 78.2649 132.399C76.891 132.796 75.5404 133.394 74.1454 133.83C70.1952 135.066 66.4925 135.455 62.3667 135.566C51.2157 135.756 40.4457 131.512 32.4252 123.767C29.729 121.208 27.3879 118.301 25.4645 115.121C19.7189 105.809 19.3523 97.9778 19.3526 87.5799C19.388 82.9664 19.3608 78.3525 19.2711 73.7396C24.9212 73.3437 31.1078 73.9091 36.8107 73.6739C38.5596 73.6017 40.5909 73.54 42.3285 73.6132C42.2399 72.2251 42.21 70.7517 42.2413 69.3622C42.3795 63.2313 42.0222 56.9134 42.3036 50.8064C38.7188 50.6074 33.9037 50.7907 30.2318 50.7601C27.2701 50.7355 22.1133 50.6289 19.3596 50.9038C19.1811 47.0627 19.3946 42.0972 19.352 38.1617C19.3199 35.221 19.1718 30.0754 19.3738 27.2693ZM74.864 107.577C77.384 105.548 79.0931 102.574 80.2522 99.5647C84.4549 88.6509 76.4323 75.1912 64.7233 73.9488C58.0645 73.2422 50.311 74.1945 43.421 73.6865C42.8952 73.7643 42.6894 73.6895 42.4268 74.0196C42.2693 76.2522 42.4658 78.8365 42.4611 81.1301C42.4516 85.9219 42.324 90.7976 42.5804 95.5814C42.8089 99.8439 45.8193 105.126 49.0685 107.868C52.2993 110.594 56.6215 112.52 60.9193 112.751C66.4166 113.046 70.6563 110.899 74.864 107.577Z" fill="white"/>
<path d="M189.844 87.8859C192.292 87.8788 195.258 87.7986 197.678 87.8971C197.613 95.9291 197.588 103.961 197.607 111.993C197.61 115.86 197.438 121.453 197.685 125.137C195.068 124.948 192.521 125.119 189.948 125.018C189.926 124.28 189.881 123.43 189.901 122.701C187.356 124.877 185.073 126.053 181.576 125.78C178.744 125.541 176.119 124.195 174.275 122.034C172.429 119.858 171.841 117.86 171.635 115.124L155.546 115.128C155.872 116.631 156.221 118.181 157.666 118.942C160.873 120.631 163.615 119.32 165.956 117.31C167.59 118.091 170.043 119.381 171.635 119.967C170.961 120.802 170.169 121.814 169.38 122.527C164.866 126.605 156.925 126.993 152.16 123.121C150.623 121.872 149.425 120.257 148.509 118.508C147.686 116.877 147.737 113.528 147.947 111.709C149.78 101.682 164.322 98.7969 169.92 106.972C170.756 108.215 171.333 109.615 171.612 111.087C174.129 104.377 178.869 100.55 186.524 102.941C187.798 103.339 188.977 104.219 190.021 105.051C189.815 103.208 189.917 101.022 189.895 99.1477C189.853 95.4128 189.968 91.617 189.844 87.8859ZM185.435 119.3C188.337 118.955 190.407 116.322 190.057 113.423C189.706 110.524 187.068 108.46 184.168 108.815C181.275 109.17 179.216 111.798 179.565 114.69C179.915 117.582 182.541 119.644 185.435 119.3ZM155.786 110.859C157.711 110.811 159.638 110.796 161.563 110.813L164.531 110.853C163.322 108.079 162.359 106.858 159.007 107.309C156.806 108.015 156.42 108.658 155.786 110.859Z" fill="white"/>
<path d="M136.568 89.5029C139.437 89.3986 142.42 89.4581 145.301 89.4789C145.342 96.9529 146.643 105.625 147.19 113.26C147.277 114.248 147.51 117.415 147.763 118.205C147.998 120.404 148.067 123.068 148.348 125.104C146.114 124.989 142.542 124.973 140.328 125.18C139.395 117.948 139.145 110.484 138.482 103.181C138.097 104.033 137.659 105.617 137.331 106.582L134.771 114.071C133.841 116.777 131.58 122.495 131.061 124.877L125.981 124.849C125.466 122.891 124.226 119.609 123.542 117.623L118.471 103.163C118.265 104.65 118.227 107.993 118.106 109.68C117.762 114.504 116.836 120.294 117.141 125.027C114.661 125.012 111.179 124.951 108.782 125.172C108.821 121.12 109.535 117.211 109.755 113.261C110.194 105.395 111.551 97.2582 111.801 89.4649C114.708 89.4354 117.615 89.4449 120.522 89.4934C120.915 90.6131 121.657 92.1325 122.127 93.331C123.283 96.3277 124.425 99.3303 125.551 102.338C126.569 104.987 127.565 107.355 128.426 110.067C129.725 106.399 131.549 102.289 132.906 98.5502C133.774 96.1562 135.443 91.599 136.568 89.5029Z" fill="white"/>
<path d="M110.845 45.1705C119.928 45.5387 135.837 42.4714 134.021 56.8746C133.644 59.8616 131.7 61.4687 129.476 63.186C137.291 64.2508 139.332 71.6089 136.152 78.0771C135.831 78.5413 135.483 78.9864 135.111 79.4098C133.043 81.7931 129.98 82.816 126.918 83.023C121.558 83.3856 116.012 82.8463 110.673 83.2062C110.566 74.5771 110.803 65.7505 110.686 57.0969C110.663 55.414 110.606 46.0711 110.845 45.1705ZM119.476 76.4963C121.865 76.4684 125.569 76.7572 127.313 75.128C128.169 74.1412 128.645 73.3706 128.557 72.0227C128.241 67.1956 122.924 67.5284 119.437 67.3821C119.47 70.4201 119.483 73.4583 119.476 76.4963ZM119.455 60.363C121.091 60.1443 123.098 59.9441 124.531 59.0717C126.066 57.2344 126.79 54.9292 124.63 53.2271C123.141 52.0534 121.284 51.9037 119.473 51.6842C119.439 54.3492 119.58 57.8001 119.455 60.363Z" fill="white"/>
<path d="M168.813 59.2499C169.904 59.1147 171.002 59.0621 172.1 59.0922C174.899 59.1879 177.256 59.9563 179.193 62.0412L179.134 59.6731C181.715 59.495 184.687 59.6214 187.366 59.5172C186.872 67.9368 187.667 76.8499 187.203 85.2549C186.55 97.0387 168.158 99.1793 161.479 91.0967C161.01 90.4049 160.709 89.8314 160.321 89.0997C161.785 88.119 165.003 86.7367 166.74 85.8751C168.55 87.5496 170.025 88.736 172.589 88.7624C177.939 88.8175 179.097 85.9051 179.251 81.489C175.309 84.7006 168.899 84.668 164.764 81.8587C156.638 76.3382 158.588 60.9783 168.813 59.2499ZM174.69 76.9089C177.731 76.3997 179.784 73.5233 179.274 70.484C178.765 67.4446 175.888 65.3932 172.846 65.9016C169.804 66.4101 167.751 69.2869 168.26 72.3266C168.77 75.3665 171.648 77.4182 174.69 76.9089Z" fill="white"/>
<path d="M287.728 59.251C290.707 58.9037 293.712 58.98 296.282 60.6298C305.003 66.2268 303.173 81.5195 292.503 83.6453C288.318 84.4789 285.728 83.3355 282.404 81.1886C282.485 83.6428 282.41 86.5162 282.408 89.0033C282.397 91.0282 282.349 93.1711 282.467 95.1838C280.338 95.0061 276.494 95.0978 274.274 95.1431C273.989 91.8565 274.19 85.6072 274.184 82.155C274.17 74.6911 274.111 67.0729 274.193 59.6167C276.767 59.5166 279.806 59.5869 282.401 59.5943C282.39 60.6003 282.305 61.3368 282.192 62.3286C284.117 60.6509 285.148 59.6455 287.728 59.251ZM288.707 76.868C291.735 76.3168 293.745 73.4195 293.198 70.3925C292.653 67.3654 289.757 65.3518 286.728 65.892C283.69 66.4335 281.668 69.3363 282.217 72.371C282.763 75.4058 285.672 77.4205 288.707 76.868Z" fill="white"/>
<path d="M244.924 102.333C246.832 102.14 249.296 102.291 250.957 103.285C251.82 103.802 252.502 104.349 253.457 104.676L253.631 104.573C253.617 103.972 253.592 103.743 253.737 103.155C253.815 103.081 253.908 102.993 254.018 102.89C256.217 102.732 259.05 102.932 261.204 102.746L261.197 116.843C261.197 119.476 261.12 122.553 261.254 125.157C259.119 124.991 255.854 124.999 253.695 125.098C253.704 124.304 253.862 123.285 253.486 122.735C249.866 126.562 243.443 126.817 239.421 123.472C232.092 117.377 234.617 103.442 244.924 102.333ZM249.141 119.299C252.022 118.971 254.098 116.377 253.785 113.495C253.472 110.612 250.89 108.524 248.004 108.82C245.095 109.119 242.985 111.725 243.3 114.631C243.614 117.536 246.234 119.63 249.141 119.299Z" fill="white"/>
<path d="M215.56 87.879C216.703 87.8737 217.663 87.8264 218.803 87.7473C218.627 90.7321 218.711 94.465 218.707 97.4945C218.671 101.882 218.686 106.27 218.756 110.657C220.777 108.851 224.985 104.085 226.85 102.885C230.094 102.715 233.364 102.973 236.619 102.778C233.062 106.278 229.476 109.948 225.97 113.504C228.386 116.178 232.451 120.151 235.088 122.679C236.09 123.7 236.629 124.247 237.762 125.099C235.58 124.971 228.428 125.45 227.202 124.526L227.11 124.455C226.065 123.663 224.777 122.256 223.825 121.293C222.116 119.563 220.496 117.889 218.703 116.242C218.693 119.205 218.708 122.168 218.752 125.13C216.749 124.953 213.054 125.036 211.048 125.161C210.766 112.893 211.317 100.171 210.959 87.9L215.56 87.879Z" fill="white"/>
<path d="M237.35 45.1859C238.817 45.2546 240.42 45.2599 241.887 45.227C249.107 45.0659 256.551 45.4753 263.739 45.1282C263.753 47.7792 263.678 50.4503 263.742 53.0947C261.674 52.7964 257.146 52.9619 254.792 52.9153C255.128 59.3886 254.871 67.9029 254.864 74.5261C254.882 77.2391 254.699 80.5497 254.909 83.2173C252.65 82.9911 248.382 83.1365 246.046 83.1609C245.873 75.4373 246.143 67.6151 246.03 59.8818C245.996 57.6117 245.981 55.1626 246.108 52.9108C243.481 53.0593 239.867 52.8879 237.113 52.9348C237.183 51.5033 236.906 45.8787 237.35 45.1859Z" fill="white"/>
<path d="M215.076 59.2012C215.516 59.155 215.959 59.1214 216.401 59.1005C219.247 58.9864 222.407 59.7008 224.521 61.7011C225.488 62.6138 226.177 63.7835 226.502 65.073C227.331 68.3013 226.719 79.1447 226.831 83.1664C224.295 83.0558 221.27 83.1228 218.714 83.1411C218.657 79.7055 219.202 70.6268 218.298 67.8067C218.083 67.1367 217.544 66.5295 217.116 65.9798C216.784 65.84 216.448 65.7079 216.11 65.5835C214.477 64.993 213.429 65.3406 211.946 66.0324C208.06 69.016 210.336 75.8442 209.741 80.1906C209.654 80.8295 209.775 82.4679 209.828 83.158C207.236 83.0624 204.263 83.1292 201.643 83.1276C201.644 75.4726 201.795 67.1696 201.551 59.5666L209.864 59.653L209.766 62.0739C211.71 60.4747 212.551 59.5705 215.076 59.2012Z" fill="white"/>
<path d="M150.442 43.6116C152.842 43.7172 155.951 43.6138 158.405 43.6023C158.232 47.5047 158.67 82.291 158.219 83.1578C155.765 83.0736 152.673 83.0916 150.224 83.1766C150.034 79.3739 150.074 44.4052 150.442 43.6116Z" fill="white"/>
<path d="M264.403 87.8563C266.77 87.9047 269.487 87.8996 271.837 87.762C271.599 91.1884 271.756 96.9148 271.758 100.428L271.738 125.162C270.25 124.976 265.671 124.983 264.163 125.174L264.155 100.446C264.155 98.8473 263.995 88.4645 264.403 87.8563Z" fill="white"/>
<path d="M197.769 59.5531C198.063 59.4924 197.914 59.5042 198.249 59.639C198.415 59.9782 198.289 80.7829 198.347 83.1697C195.984 83.08 193.311 83.1302 190.925 83.1238L190.426 83.1266C190.07 82.7061 190.166 81.1968 190.166 80.5725C190.169 73.5642 190.174 66.556 190.166 59.5477C192.693 59.6246 195.239 59.5768 197.769 59.5531Z" fill="white"/>
<path d="M263.747 59.6083C266.504 59.615 269.261 59.5931 272.016 59.5425C271.636 65.445 272.153 76.4993 271.873 82.8769C271.796 82.9693 271.72 83.0618 271.642 83.1543L263.716 83.0999C263.599 75.4392 263.811 67.3653 263.747 59.6083Z" fill="white"/>
<path d="M138.943 59.5978C141.456 59.5066 144.5 59.5922 147.054 59.595C146.743 62.1664 146.951 68.8338 146.92 71.6453C146.894 74.0464 146.775 80.9191 147.038 83.0656C146.316 83.2049 140.368 83.1302 138.958 83.193C138.926 82.4711 138.939 81.6891 138.945 80.9615C139.002 73.8483 138.843 66.7088 138.943 59.5978Z" fill="white"/>
<path d="M200.461 102.781C202.867 102.886 205.749 102.865 208.157 102.8C207.928 109.629 208.069 118.201 208.188 125.059C205.756 124.999 202.823 125.013 200.406 125.119C200.478 120.026 200.341 114.818 200.38 109.724C200.387 108.662 200.246 103.517 200.461 102.781Z" fill="white"/>
<path d="M142.273 45.0909C144.914 44.6722 147.389 46.4846 147.785 49.1266C148.182 51.7686 146.347 54.2269 143.7 54.6005C141.085 54.9696 138.661 53.1629 138.27 50.5527C137.878 47.9424 139.665 45.5047 142.273 45.0909Z" fill="white"/>
<path d="M193.708 45.0819C196.342 44.6853 198.797 46.5038 199.184 49.1378C199.57 51.7719 197.741 54.2179 195.104 54.5931C192.481 54.9662 190.051 53.1505 189.666 50.5315C189.283 47.9127 191.09 45.4765 193.708 45.0819Z" fill="white"/>
<path d="M203.682 89.2294C206.154 88.8946 208.431 90.6261 208.766 93.097C209.102 95.5681 207.37 97.8435 204.898 98.1799C202.425 98.5166 200.146 96.7849 199.811 94.3128C199.475 91.8404 201.208 89.5643 203.682 89.2294Z" fill="white"/>
<path d="M164.667 150.492C163.71 147.788 158.737 148.7 156.564 148.94C150.521 149.605 156.531 142.671 158.091 141.204C159.999 139.411 162.678 136.844 165.408 136.548C167.463 136.326 170.003 136.567 172.134 136.193C172.796 136.068 174.676 136.036 175.276 136.234C175.489 138.076 166.952 138.043 165.285 138.467C160.391 139.712 157.276 143.669 154.684 147.712C158.659 147.866 162.263 145.88 165.282 149.676L165.157 150.869L164.977 150.431L164.788 150.376L164.667 150.492Z" fill="white"/>
<path d="M149.056 138.417C147.831 136.76 138.248 140.417 136.75 141.658C136.089 142.206 134.714 143.937 134.05 144.019L133.795 143.738C132.989 140.006 146.093 135.607 149.587 137.486C150.8 139.339 149.02 141.794 147.536 142.885C146.851 143.658 144.722 145.539 143.844 146.11C143.292 145.659 142.943 145.779 142.281 145.856C144.201 144.537 145.59 143.237 147.209 141.559C147.96 140.913 148.609 139.347 149.056 138.417Z" fill="white"/>
<path d="M196.943 156.157C199.543 155.172 201.456 150.64 201.825 148.056C202.115 146.031 201.95 143.705 202.802 141.831C202.895 141.625 203.174 141.667 203.361 141.661C205.7 142.82 202.51 148.326 202.822 150.398C202.884 150.807 202.408 153.375 202.269 153.91C202.151 153.628 202.11 153.557 201.95 153.294L201.721 153.339L201.593 153.435C199.948 154.686 198.699 157.041 196.459 157.149C196.468 156.887 196.795 156.411 196.943 156.157Z" fill="white"/>
<path d="M213.06 146.119C213.287 147.235 212.429 147.765 213.133 148.776C212.466 150.672 209.468 159.585 210.697 160.956C212.519 161.265 215.72 156.811 216.918 155.695L217.107 156.154C215.834 158.263 209.959 165.556 209.253 159.278C208.294 160.485 207.186 162.382 205.431 161.311L206.107 160.902C210.021 160.569 211.376 148.988 213.06 146.119Z" fill="white"/>
<path d="M201.721 153.339L201.95 153.294C202.111 153.557 202.151 153.628 202.269 153.91C201.671 156.56 201.763 159.082 201.093 161.707C201.045 161.892 200.34 163.117 200.203 163.357C200.382 163.572 200.452 163.665 200.527 163.945C199.41 166.727 195.347 170.561 192.684 171.886C189.852 173.295 185.661 171.453 184.562 168.637L184.799 168.281C185.189 168.872 185.642 169.42 186.15 169.917C191.181 174.872 197.55 168.863 199.262 163.872C200.421 160.496 201.006 158.475 200.981 154.911C201.346 154.35 201.634 154.001 201.721 153.339Z" fill="white"/>
<path d="M205.431 161.311C203.403 159.331 204.576 154.982 205.304 152.566C205.603 151.571 206.399 148.326 207.436 147.978C209.699 149.364 203.799 157.376 206.026 160.782L206.107 160.902L205.431 161.311Z" fill="white"/>
<path d="M213.06 146.119C213.055 146.095 213.049 146.07 213.046 146.046C212.943 145.315 216.159 135.447 216.859 134.587C217.038 134.366 217.273 134.241 217.532 134.135C218.004 134.274 217.851 134.221 218.201 134.733C218.08 136.366 216.909 138.109 216.429 139.648C215.499 142.638 213.944 145.814 213.133 148.775C212.429 147.765 213.287 147.235 213.06 146.119Z" fill="white"/>
<path d="M165.282 149.676C165.965 153.172 163.655 154.752 161.303 156.721C158.219 159.302 155.176 161.531 151.182 162.471C150.955 162.527 150.748 162.505 150.523 162.471C149.892 161.784 150.307 159.568 150.89 158.88L151.115 158.842C151.076 159.516 150.901 160.51 151.125 161.07C151.293 161.219 151.496 161.458 151.756 161.387C156.217 160.181 163.848 155.318 164.667 150.492L164.789 150.376L164.977 150.431L165.158 150.869L165.282 149.676Z" fill="white"/>
<path d="M142.281 145.856C142.944 145.779 143.292 145.659 143.844 146.11C143.324 146.498 142.439 147.028 142.17 147.544C142.83 148.065 145.246 146.608 147.847 148.299L147.638 148.904C144.758 147.975 141.225 148.903 138.411 149.764C137.63 150.003 136.739 151.158 135.927 150.417C136.01 148.943 138.982 148.294 140.028 147.565C140.833 147.004 141.512 146.482 142.281 145.856Z" fill="white"/>
<path d="M192.113 151.75C191.263 149.917 192.394 143.08 192.936 140.907C193.057 140.421 193.383 140.292 193.822 140.223C195.067 140.794 194.573 141.719 194.266 142.767C193.615 144.986 193.317 147.192 193.037 149.478C192.707 150.393 192.936 152.103 192.789 152.34C192.498 152.118 192.356 152.021 192.113 151.75Z" fill="white"/>
<path d="M192.114 151.75C192.357 152.02 192.498 152.117 192.79 152.339C192.936 152.103 192.707 150.393 193.037 149.478C193.28 151.4 193.249 156.858 196.156 156.33C196.42 156.282 196.684 156.224 196.944 156.157C196.796 156.411 196.469 156.887 196.459 157.149C195.38 157.281 194.824 157.088 193.777 157.502C191.473 158.414 189.023 159.439 187.363 161.339C187.073 161.227 186.81 161.002 186.55 160.813C188.347 159.012 191.88 157.3 194.408 156.889C192.794 154.577 192.766 154.513 192.114 151.75Z" fill="white"/>
<path d="M147.847 148.299C148.361 148.969 148.479 149.497 148.727 150.293C147.615 153.866 145.759 155.395 142.591 157.119C141.787 157.557 141.021 158.207 140.221 158.611L139.824 158.277C142.063 157.224 148.71 151.686 147.638 148.904L147.847 148.299Z" fill="white"/>
<path d="M184.562 168.637C182.797 165.468 183.98 163.039 186.55 160.813C186.81 161.002 187.073 161.227 187.363 161.339C185.433 163.467 184.11 165.244 184.799 168.281L184.562 168.637Z" fill="white"/>
<path d="M129.375 156.811C129.918 156.979 129.663 158.699 130.443 159.682C131.583 161.12 133.789 160.091 134.415 161.037L134.319 161.364C132.551 161.439 131.825 161.371 130.105 161.12C129.359 160.015 128.591 158.033 129.375 156.811Z" fill="white"/>
<path d="M147.189 113.26C147.336 112.458 147.436 112.357 147.947 111.709C147.738 113.528 147.686 116.877 148.509 118.508C148.126 118.509 148.09 118.445 147.762 118.205C147.51 117.415 147.277 114.248 147.189 113.26Z" fill="white"/>
<path d="M140.222 158.61C139.226 159.25 136.475 160.763 135.356 161L135.229 160.894C135.908 160.201 138.856 158.747 139.825 158.277L140.222 158.61Z" fill="white"/>
<path d="M176.377 159.179C177.995 159.44 177.597 160.5 176.707 161.33C176.464 161.389 176.267 161.296 176.02 161.22C175.235 160.384 175.776 159.85 176.377 159.179Z" fill="white"/>
<path d="M216.918 155.695C217.527 154.915 218.281 153.853 219.039 153.262L219.243 153.266C219.004 154.19 217.792 155.444 217.106 156.154L216.918 155.695Z" fill="white"/>
</svg>
