<svg width="384" height="184" viewBox="0 0 384 184" fill="none" xmlns="http://www.w3.org/2000/svg">
<mask id="mask0_1_1512" style="mask-type:luminance" maskUnits="userSpaceOnUse" x="-74" y="0" width="458" height="184">
<path d="M-74 0H383.876V184H-74V0Z" fill="white"/>
</mask>
<g mask="url(#mask0_1_1512)">
<path d="M-69.5553 103.555L-28.0127 102.759L-30.4162 104.072L-16.9739 83.9927C-16.5686 83.3919 -15.9678 82.9587 -15.2831 82.7771C-13.1452 82.1902 -11.7618 83.9229 -11.6081 84.1045C-10.3645 85.5577 -8.91129 88.9113 -7.24847 93.3409L-7.22052 93.4247L5.1039 129.56L-0.611168 130.007L20.5723 8.59298C20.8238 7.15373 22.0954 6.10574 23.5626 6.14766C25.0298 6.18958 26.2455 7.29347 26.4271 8.74669L47.1355 179.374L41.2807 179.276L52.2218 108.949L52.2497 108.823C52.5292 107.384 53.3396 106.294 54.3457 105.553C55.6592 104.589 57.2521 104.254 58.37 104.086C58.4259 104.072 58.4399 104.072 58.4678 104.072H58.4818C59.9909 103.863 65.1191 103.947 73.5729 104.519C73.3913 104.505 73.2934 104.547 73.2934 104.547C73.2934 104.547 73.4052 104.505 73.6288 104.31L72.8184 105.414L85.7576 75.5389C86.1349 74.6726 86.8894 74.0438 87.8117 73.8202C89.3487 73.4709 90.774 73.918 91.8639 74.7564C93.3591 75.8882 94.3931 77.8026 95.1756 79.7868L95.2455 79.9824L102.609 103.108L102.512 102.829C102.581 102.996 102.959 103.681 106.564 104.142C111.552 104.771 134.259 106.182 174.963 106.643C174.921 106.643 174.893 106.643 174.893 106.657C175.019 106.615 175.578 106.266 176.486 104.883L176.29 105.246L184.283 88.3105L184.297 88.2965C184.437 88.0031 184.591 87.7236 184.786 87.4302L184.772 87.4441C185.946 85.7114 188.056 84.7613 190.306 85.8372L190.389 85.8791C191.13 86.2564 191.675 86.9131 191.913 87.6957L204.544 130.496L198.801 130.775L223.227 2.43077C223.492 1.0055 224.764 -0.0145515 226.231 0.0273692C227.684 0.0692899 228.886 1.17318 229.067 2.61242L251.676 181.736L245.807 181.638L258.244 103.611V103.541C258.481 102.256 259.18 101.292 259.976 100.607C260.982 99.7546 262.24 99.2655 263.302 98.9861C263.581 98.9022 263.875 98.8743 264.168 98.8743C271.965 99.0839 275.878 98.9441 276.758 98.7066C277.736 98.4271 275.165 98.7345 275.095 101.152C275.039 103.01 276.674 103.709 276.269 103.471C274.9 102.675 274.397 100.956 275.109 99.559L289.152 72.2272C289.502 71.5565 290.089 71.0535 290.787 70.802C292.66 70.1173 294.462 70.6483 295.762 71.8919C296.754 72.8281 297.425 74.1136 297.914 75.4132L297.928 75.4551L308.743 104.967L306.032 103.024L379.462 104.673C381.097 104.715 382.396 106.071 382.368 107.705C382.326 109.34 380.971 110.64 379.336 110.598L305.892 108.949C304.677 108.921 303.601 108.153 303.182 107.007L292.366 77.4952L292.38 77.5231C292.017 76.5729 291.738 76.2376 291.682 76.1817C291.807 76.3074 292.324 76.545 292.8 76.3633L294.434 74.9381L280.391 102.256L279.231 98.3433C279.245 98.3433 281.076 99.2515 281.02 101.32C280.936 103.975 278.03 104.492 278.351 104.408C276.381 104.953 271.309 104.995 264.001 104.799L264.867 104.687C264.154 104.883 263.875 105.078 263.819 105.12H263.833C263.833 105.106 264.015 104.939 264.084 104.603V104.533L251.662 182.574C251.425 184.027 250.153 185.089 248.686 185.075C247.205 185.047 245.975 183.944 245.793 182.476L223.199 3.35301L229.039 3.54863L204.614 131.893C204.363 133.235 203.217 134.227 201.861 134.296C200.492 134.366 199.248 133.486 198.871 132.173L186.225 89.3724L187.748 91.189C187.721 91.175 187.776 91.2029 187.748 91.189C188.587 91.5802 189.509 91.0353 189.691 90.7558C189.691 90.7558 189.677 90.7837 189.635 90.8536V90.8396L181.642 107.775C181.586 107.901 181.516 108.027 181.447 108.139C180.44 109.648 178.917 111.59 176.682 112.303C176.123 112.47 175.522 112.568 174.907 112.568C134.217 112.107 111.189 110.71 105.823 110.011C102.553 109.592 98.613 108.767 97.062 105.176L96.9642 104.911L89.6003 81.771L89.6701 81.9666C88.9575 80.1641 88.4125 79.5772 88.2868 79.4794C88.3427 79.5073 88.692 79.7029 89.1531 79.5912L91.1932 77.8864L78.254 107.761C78.0723 108.18 77.7928 108.558 77.4295 108.851C76.8706 109.326 76.2278 109.759 75.4733 110.053C74.7886 110.332 74.0061 110.486 73.1677 110.43C64.5043 109.843 60.0468 109.829 59.2503 109.941H59.2643C58.3001 110.081 57.9368 110.262 57.853 110.318C57.9089 110.29 58.0207 110.151 58.0486 109.997L58.0766 109.871L47.1355 180.185C46.8979 181.652 45.6264 182.714 44.1452 182.686C42.678 182.672 41.4344 181.554 41.2667 180.087L20.5444 9.45932L26.3992 9.61303L5.21568 131.013C4.99211 132.354 3.87425 133.36 2.53282 133.458C1.17741 133.57 -0.0662079 132.745 -0.499382 131.46L-12.8238 95.339L-12.7959 95.4368C-14.5844 90.658 -15.6883 88.4362 -16.1215 87.9472C-16.4848 87.514 -15.5346 88.9812 -13.7321 88.4921L-12.0413 87.2765L-25.4836 107.37C-26.0285 108.166 -26.9228 108.656 -27.901 108.684L-69.4295 109.48C-71.0644 109.508 -72.4198 108.208 -72.4477 106.574C-72.4897 104.939 -71.1902 103.583 -69.5553 103.555Z" fill="#B21C1C"/>
</g>
</svg>
