<svg width="58" height="55" viewBox="0 0 58 55" fill="none" xmlns="http://www.w3.org/2000/svg">
<mask id="mask0_1_960" style="mask-type:luminance" maskUnits="userSpaceOnUse" x="0" y="0" width="58" height="40">
<path d="M0 0H58V39.9456H0V0Z" fill="white"/>
</mask>
<g mask="url(#mask0_1_960)">
<path fill-rule="evenodd" clip-rule="evenodd" d="M44.5894 38.633H13.6481C10.3896 38.633 7.35151 37.3756 5.09355 35.1176C2.8356 32.8597 1.57812 29.8215 1.57812 26.5631C1.57812 22.7907 3.35879 19.2385 6.38775 17.0173C5.83703 15.7598 5.58002 14.3371 5.58002 12.8226C5.58002 6.17728 10.9679 0.752686 17.6133 0.752686C20.1282 0.752686 22.5881 1.53287 24.6166 2.9831C26.4523 4.30483 27.875 6.07631 28.747 8.14151C29.5547 7.94876 30.39 7.8478 31.3904 7.8478C33.8136 7.8478 36.1358 8.59127 38.1368 9.94971C39.9725 11.1797 41.3952 12.8502 42.3314 14.7869C42.4232 14.7593 42.5242 14.7593 42.6527 14.7226C43.2676 14.6308 43.9101 14.5299 44.6169 14.5299C51.2622 14.5299 56.6501 19.9177 56.6501 26.5631C56.6501 29.8215 55.4294 32.8597 53.1714 35.1176C50.8767 37.3756 47.8478 38.633 44.5894 38.633ZM17.6133 2.04688C11.6747 2.04688 6.87422 6.88404 6.87422 12.8226C6.87422 14.3371 7.15876 15.7231 7.77373 16.9163C7.90223 17.21 7.81044 17.568 7.55344 17.7608C4.61626 19.725 2.87232 23.0477 2.87232 26.5631C2.87232 32.5935 7.61769 37.3389 13.6481 37.3389H44.5894C50.6197 37.3389 55.3651 32.5935 55.3651 26.5631C55.3651 20.6612 50.5188 15.8241 44.5894 15.8241C43.9744 15.8241 43.3961 15.9158 42.8454 16.0168C42.5517 16.0443 42.2672 16.1086 42.0102 16.1453C41.7164 16.1728 41.4227 16.0168 41.3309 15.7598C39.6145 11.7579 35.7136 9.14199 31.3629 9.14199C30.2615 9.14199 29.3895 9.27049 28.5818 9.56421C28.233 9.656 27.875 9.49996 27.774 9.1787C26.1953 4.9198 22.1292 2.04688 17.6133 2.04688Z" fill="black"/>
</g>
<path fill-rule="evenodd" clip-rule="evenodd" d="M44.5886 33.6581C44.2307 33.6581 43.937 33.3736 43.937 33.0156C43.937 32.6668 44.2307 32.3731 44.5886 32.3731C47.8104 32.3731 50.3896 29.7939 50.3896 26.563C50.3896 23.4331 47.8104 20.8906 44.5886 20.8906C44.2307 20.8906 43.937 20.5969 43.937 20.2389C43.937 19.8901 44.2307 19.5964 44.5886 19.5964C46.4886 19.5964 48.2601 20.3032 49.6185 21.5974C50.9403 22.9191 51.6838 24.6906 51.6838 26.563C51.6838 30.5007 48.5263 33.6581 44.5886 33.6581ZM13.6474 33.6581C9.70971 33.6581 6.55225 30.5007 6.55225 26.563C6.55225 26.2142 6.83678 25.9205 7.19475 25.9205C7.55272 25.9205 7.83726 26.2142 7.83726 26.563C7.83726 29.7939 10.4165 32.3731 13.6474 32.3731C14.0053 32.3731 14.2899 32.6668 14.2899 33.0156C14.2899 33.3736 14.0053 33.6581 13.6474 33.6581ZM11.1599 13.4651C10.8111 13.4651 10.5174 13.1713 10.5174 12.8225C10.5174 8.8849 13.7116 5.71826 17.6125 5.71826C20.5864 5.71826 23.3217 7.65496 24.2579 10.4636C24.3589 10.7849 24.1661 11.1429 23.8449 11.2714C23.5144 11.3723 23.1289 11.2071 23.0371 10.8491C22.2569 8.59118 20.0357 7.01245 17.6125 7.01245C14.4184 7.01245 11.8024 9.59166 11.8024 12.8225C11.8024 13.1713 11.5179 13.4651 11.1599 13.4651Z" fill="black"/>
<path fill-rule="evenodd" clip-rule="evenodd" d="M13.1995 49.1516C12.8416 49.1516 12.5479 48.8579 12.5479 48.4999V37.9811C12.5479 37.6323 12.8416 37.3386 13.1995 37.3386C13.5483 37.3386 13.842 37.6323 13.842 37.9811V48.4999C13.842 48.8579 13.5483 49.1516 13.1995 49.1516Z" fill="black"/>
<path fill-rule="evenodd" clip-rule="evenodd" d="M13.2011 54.5397C11.3929 54.5397 9.87842 53.0161 9.87842 51.2171C9.87842 49.4089 11.3929 47.8577 13.2011 47.8577C15.0735 47.8577 16.5513 49.3446 16.5513 51.2171C16.5513 53.0895 15.0735 54.5397 13.2011 54.5397ZM13.2011 49.1519C12.1364 49.1519 11.1634 50.1156 11.1634 51.2171C11.1634 52.2818 12.1364 53.2455 13.2011 53.2455C14.3576 53.2455 15.2663 52.346 15.2663 51.2171C15.2663 50.0514 14.3576 49.1519 13.2011 49.1519Z" fill="black"/>
<path fill-rule="evenodd" clip-rule="evenodd" d="M23.5165 45.4985C23.1677 45.4985 22.874 45.2139 22.874 44.856V37.9811C22.874 37.6323 23.1677 37.3386 23.5165 37.3386C23.8745 37.3386 24.1682 37.6323 24.1682 37.9811V44.856C24.1682 45.2139 23.8745 45.4985 23.5165 45.4985Z" fill="black"/>
<path fill-rule="evenodd" clip-rule="evenodd" d="M23.5183 52.8232C21.1043 52.8232 19.1309 50.8865 19.1309 48.5001C19.1309 46.1503 21.1043 44.2136 23.5183 44.2136C25.9414 44.2136 27.8414 46.1136 27.8414 48.5001C27.8414 50.9232 25.9414 52.8232 23.5183 52.8232ZM23.5183 45.4986C21.811 45.4986 20.4251 46.8571 20.4251 48.5001C20.4251 50.1798 21.811 51.5382 23.5183 51.5382C25.2347 51.5382 26.5564 50.2165 26.5564 48.5001C26.5564 46.8295 25.2347 45.4986 23.5183 45.4986Z" fill="black"/>
<path fill-rule="evenodd" clip-rule="evenodd" d="M33.7518 49.1516C33.3938 49.1516 33.1001 48.8579 33.1001 48.4999V37.9811C33.1001 37.6323 33.3938 37.3386 33.7518 37.3386C34.1006 37.3386 34.3943 37.6323 34.3943 37.9811V48.4999C34.3943 48.8579 34.1006 49.1516 33.7518 49.1516Z" fill="black"/>
<path fill-rule="evenodd" clip-rule="evenodd" d="M33.7554 54.5397C31.8829 54.5397 30.396 53.0895 30.396 51.2171C30.396 49.3446 31.8829 47.8577 33.7554 47.8577C35.6278 47.8577 37.0781 49.3446 37.0781 51.2171C37.0781 53.0895 35.6278 54.5397 33.7554 54.5397ZM33.7554 49.1519C32.5897 49.1519 31.6902 50.0514 31.6902 51.2171C31.6902 52.346 32.5897 53.2455 33.7554 53.2455C34.9119 53.2455 35.7839 52.346 35.7839 51.2171C35.7839 50.0514 34.8844 49.1519 33.7554 49.1519Z" fill="black"/>
<path fill-rule="evenodd" clip-rule="evenodd" d="M43.9428 45.4985C43.594 45.4985 43.3003 45.2139 43.3003 44.856V37.9811C43.3003 37.6323 43.594 37.3386 43.9428 37.3386C44.3008 37.3386 44.5945 37.6323 44.5945 37.9811V44.856C44.5945 45.2139 44.3008 45.4985 43.9428 45.4985Z" fill="black"/>
<path fill-rule="evenodd" clip-rule="evenodd" d="M43.9388 52.8232C41.5523 52.8232 39.6523 50.9232 39.6523 48.5001C39.6523 46.1136 41.5523 44.2136 43.9388 44.2136C46.3987 44.2136 48.3629 46.1503 48.3629 48.5001C48.3629 50.8865 46.3987 52.8232 43.9388 52.8232ZM43.9388 45.4986C42.2683 45.4986 40.9465 46.8295 40.9465 48.5001C40.9465 50.2165 42.2683 51.5382 43.9388 51.5382C45.6827 51.5382 47.0687 50.1798 47.0687 48.5001C47.0687 46.8571 45.6827 45.4986 43.9388 45.4986Z" fill="black"/>
<path fill-rule="evenodd" clip-rule="evenodd" d="M28.6854 34.6311H24.4907C24.1328 34.6311 23.8482 34.3373 23.8482 33.9886V32.3731C23.426 32.2446 22.9763 32.0519 22.554 31.7949L21.3884 32.9514C21.1681 33.2084 20.7458 33.2084 20.4888 32.9514L17.5884 30.0509C17.3314 29.7939 17.3314 29.4084 17.5884 29.1422L18.7174 27.9857C18.4879 27.5635 18.3319 27.1137 18.1942 26.6915H16.5512C16.2024 26.6915 15.9087 26.407 15.9087 26.049V21.8544C15.9087 21.4964 16.2024 21.2118 16.5512 21.2118H18.1942C18.3594 20.7529 18.4879 20.3399 18.7449 19.8901L17.5884 18.7611C17.3314 18.495 17.3314 18.0819 17.5884 17.8525L20.4888 14.8235C20.5898 14.695 20.7826 14.6307 20.9386 14.6307C21.1038 14.6307 21.2966 14.695 21.3884 14.8235L22.5908 16.0167C23.0038 15.824 23.4536 15.6312 23.8482 15.466V13.7863C23.8482 13.4375 24.1328 13.1438 24.4907 13.1438H28.6854C29.0434 13.1438 29.3279 13.4375 29.3279 13.7863V15.466C29.7777 15.6312 30.1999 15.824 30.5854 16.0167L31.7786 14.8235C32.0356 14.5665 32.4303 14.5665 32.6873 14.8235L35.7163 17.8249C35.9457 18.0819 35.9457 18.495 35.7163 18.7611L34.523 19.9177C34.7158 20.3399 34.9085 20.7529 35.0737 21.2118H36.7534C37.1022 21.2118 37.396 21.4964 37.396 21.8544V26.049C37.396 26.407 37.1022 26.6915 36.7534 26.6915H35.0737C34.9085 27.1413 34.7158 27.5635 34.523 27.949L35.7163 29.1422C35.8172 29.2432 35.909 29.4359 35.909 29.6011C35.909 29.7572 35.8172 29.9224 35.7163 30.0509L32.6873 32.9514C32.4303 33.2084 32.0356 33.2084 31.7786 32.9514L30.6496 31.8224C30.1999 32.0794 29.7777 32.2721 29.3646 32.3731V33.9886C29.3279 34.3373 29.0434 34.6311 28.6854 34.6311ZM25.1333 33.3369H28.0429V31.8591C28.0429 31.5287 28.2999 31.2441 28.6211 31.2074C29.1719 31.1156 29.6859 30.8862 30.3651 30.4364C30.6221 30.2712 30.9709 30.3079 31.2004 30.5374L32.2284 31.6021L34.3303 29.5644L33.2931 28.5364C33.1003 28.3437 33.0361 28.05 33.1646 27.793C33.495 27.1413 33.7796 26.563 33.9723 25.8563C34.0733 25.5625 34.3303 25.3698 34.624 25.3698H36.1018V22.4693H34.624C34.3303 22.4693 34.0733 22.2766 33.9723 22.0196C33.7796 21.3036 33.495 20.6887 33.1646 20.0829C33.0361 19.8259 33.1003 19.5322 33.2931 19.3394L34.3303 18.2747L32.2284 16.2095L31.1636 17.2375C30.9709 17.4302 30.6863 17.4945 30.4293 17.366C29.8144 17.0447 29.1994 16.7602 28.5202 16.5674C28.2356 16.4665 28.0429 16.2095 28.0429 15.9158V14.438H25.1333V15.9158C25.1333 16.2095 24.9405 16.4665 24.6835 16.5307C24.1052 16.7235 23.3893 17.0447 22.7468 17.366C22.4898 17.4945 22.1961 17.4302 22.0033 17.2375L20.9386 16.2095L18.9377 18.3022L20.0024 19.3394C20.1951 19.5597 20.2318 19.9177 20.0666 20.1747C19.7178 20.6887 19.5251 21.2394 19.2956 22.0196C19.2314 22.3041 18.9744 22.4969 18.6806 22.4969H17.1662V25.4065H18.6806C18.9744 25.4065 19.1947 25.5992 19.2956 25.8838C19.5251 26.664 19.7178 27.2055 20.0666 27.7287C20.2318 27.9857 20.1951 28.3437 20.0024 28.564L18.9377 29.6011L20.9386 31.6021L21.9758 30.5374C22.1961 30.3354 22.554 30.3079 22.811 30.4731C23.3893 30.8586 24.041 31.1156 24.5825 31.2074C24.913 31.2717 25.1333 31.5287 25.1333 31.8591V33.3369Z" fill="black"/>
<path fill-rule="evenodd" clip-rule="evenodd" d="M26.6481 29.9226C23.2611 29.9226 20.6177 27.2792 20.6177 23.8831C20.6177 22.3044 21.2602 20.8266 22.3892 19.6884C23.5181 18.5962 25.0418 17.9812 26.6481 17.9812C29.9065 17.9812 32.5591 20.6247 32.5591 23.8831C32.5591 25.4985 31.9442 27.013 30.8427 28.142C29.7137 29.271 28.236 29.9226 26.6481 29.9226ZM26.6481 19.2754C24.0413 19.2754 21.9119 21.3406 21.9119 23.8831C21.9119 26.5357 24.0046 28.6285 26.6481 28.6285C29.1997 28.6285 31.2649 26.499 31.2649 23.8831C31.2649 21.3406 29.1997 19.2754 26.6481 19.2754Z" fill="black"/>
</svg>
