<svg width="54" height="54" viewBox="0 0 54 54" fill="none" xmlns="http://www.w3.org/2000/svg">
<mask id="mask0_1_1036" style="mask-type:luminance" maskUnits="userSpaceOnUse" x="0" y="0" width="55" height="55">
<path d="M0 0H54.0085V54H0V0Z" fill="white"/>
</mask>
<g mask="url(#mask0_1_1036)">
<path d="M41.5661 40.609C38.7375 40.609 36.3361 42.4634 35.5072 45.0271C35.2765 42.1814 32.8922 39.9424 29.9867 39.9424H29.2347V31.9778L32.3282 27.6794C34.6014 24.5089 34.4646 20.3558 31.9864 17.3477C30.3456 15.3651 27.9443 14.2285 25.3891 14.2285H23.8509C24.6713 13.0749 25.1499 11.6734 25.1499 10.1608C25.1499 6.2896 21.9965 3.12771 18.1168 3.12771C14.2371 3.12771 11.0837 6.2896 11.0837 10.1608C11.0837 11.6734 11.5708 13.0749 12.3827 14.2285H10.8444C8.29783 14.2285 5.88796 15.3651 4.25574 17.3477C1.76895 20.3558 1.63222 24.5089 3.91391 27.6794L7.00744 31.9778V39.9424H0.675107C0.299098 39.9424 0 40.2415 0 40.609V53.3249C0 53.7009 0.299098 54 0.675107 54H32.2769C34.0715 54 35.5328 52.5387 35.5328 50.7441V48.9752C36.3703 51.5047 38.7631 53.3334 41.5661 53.3334C45.0783 53.3334 47.9326 50.4792 47.9326 46.9669C47.9326 43.4632 45.0783 40.609 41.5661 40.609ZM27.8845 39.9424H23.5006L27.8845 33.8493V39.9424ZM18.1168 4.47792C21.253 4.47792 23.8082 7.02453 23.8082 10.1608C23.8082 13.297 21.253 15.8522 18.1168 15.8522C14.9805 15.8522 12.4339 13.297 12.4339 10.1608C12.4339 7.02453 14.9805 4.47792 18.1168 4.47792ZM5.28976 18.2022C6.67416 16.5358 8.69948 15.5702 10.8444 15.5702H13.6303C14.8438 16.5871 16.4077 17.1939 18.1168 17.1939C19.8259 17.1939 21.3898 16.5871 22.6033 15.5702H25.3891C27.5341 15.5702 29.5594 16.5358 30.9438 18.2022C33.0375 20.7403 33.1486 24.2269 31.2344 26.8932L22.3554 39.2416C22.2358 38.6349 21.988 38.0538 21.6205 37.5325L18.9457 33.8237L25.7737 24.3209C25.9959 24.0218 25.9275 23.6031 25.6199 23.3809C25.3208 23.1673 24.902 23.2356 24.6884 23.5347L18.1168 32.67L11.5452 23.5347C11.3315 23.2356 10.9128 23.1673 10.6137 23.3809C10.3061 23.6031 10.2377 24.0218 10.4599 24.3209L17.4844 34.0972C17.5271 34.1826 17.587 34.2681 17.6639 34.3364L20.5267 38.3187C20.9881 38.9596 21.1676 39.7458 21.0394 40.532C20.971 40.9508 20.8172 41.3524 20.5865 41.6943L20.4583 41.8737C20.2874 42.0959 20.0823 42.2924 19.8516 42.4548C19.2106 42.9163 18.4244 43.1043 17.6382 42.9761C16.8606 42.8479 16.1684 42.4206 15.7155 41.7797L4.99921 26.8932C3.08498 24.2269 3.19608 20.7403 5.28976 18.2022ZM8.34911 33.8493L12.733 39.9424H8.34911V33.8493ZM7.16126 50.1545C7.16126 48.7701 8.28928 47.642 9.67368 47.642H22.6887V52.6583H9.67368C8.28928 52.6583 7.16126 51.5303 7.16126 50.1545ZM34.1826 50.7527C34.1826 51.8038 33.3281 52.6583 32.2769 52.6583H24.0304V47.642H29.9867C30.3627 47.642 30.6618 47.3429 30.6618 46.9669C30.6618 46.5995 30.3627 46.3004 29.9867 46.3004H9.67368C7.54581 46.3004 5.81959 48.0266 5.81959 50.1459C5.81959 51.103 6.16996 51.9832 6.75107 52.6583H1.34167V41.2841H13.6987L14.6216 42.5659C15.2882 43.4974 16.288 44.1127 17.4246 44.3007C17.6639 44.3349 17.8946 44.3605 18.1339 44.3605C19.0312 44.3605 19.8943 44.0785 20.6378 43.5487C21.0565 43.241 21.4154 42.865 21.706 42.4463L22.5349 41.2841H29.9867C32.3026 41.2841 34.1826 43.1727 34.1826 45.48V50.7527ZM41.5661 51.9918C38.7973 51.9918 36.5498 49.7357 36.5498 46.9755C36.5498 44.2067 38.7973 41.9506 41.5661 41.9506C44.3349 41.9506 46.5824 44.2067 46.5824 46.9755C46.5824 49.7357 44.3349 51.9918 41.5661 51.9918ZM51.6072 3.34135H49.2743V1.76041C49.2743 0.786199 48.4881 0 47.5138 0H42.7026C41.7284 0 40.9337 0.786199 40.9337 1.76041V3.34135H38.6007C37.2847 3.34135 36.2079 4.4181 36.2079 5.74268V14.6302C36.2079 15.9547 37.2847 17.0229 38.6007 17.0229H51.6072C52.9318 17.0229 54.0085 15.9547 54.0085 14.6302V5.74268C54.0085 4.4181 52.9318 3.34135 51.6072 3.34135ZM42.2839 1.76041C42.2839 1.52967 42.4719 1.34167 42.7026 1.34167H47.5138C47.7446 1.34167 47.9326 1.52967 47.9326 1.76041V3.34135H42.2839V1.76041ZM52.6583 14.6302C52.6583 15.2113 52.1883 15.6813 51.6072 15.6813H38.6093C38.0282 15.6813 37.5582 15.2113 37.5582 14.6302V5.73414C37.5582 5.16158 38.0282 4.68302 38.6093 4.68302H51.6072C52.1883 4.68302 52.6583 5.16158 52.6583 5.73414V14.6302ZM48.2659 10.1864C48.2659 10.5539 47.9668 10.853 47.5908 10.853H45.7791V12.6732C45.7791 13.0407 45.48 13.3483 45.104 13.3483C44.7365 13.3483 44.4374 13.0407 44.4374 12.6732V10.853H42.6172C42.2497 10.853 41.9506 10.5539 41.9506 10.1864C41.9506 9.81041 42.2497 9.51131 42.6172 9.51131H44.4374V7.69964C44.4374 7.32363 44.7365 7.02453 45.104 7.02453C45.48 7.02453 45.7791 7.32363 45.7791 7.69964V9.51131H47.5908C47.9668 9.51131 48.2659 9.81041 48.2659 10.1864Z" fill="black"/>
</g>
</svg>
