<svg width="67" height="51" viewBox="0 0 67 51" fill="none" xmlns="http://www.w3.org/2000/svg">
<mask id="mask0_1_921" style="mask-type:luminance" maskUnits="userSpaceOnUse" x="38" y="0" width="29" height="46">
<path d="M38.6245 0.921875H66.6904V45.4995H38.6245V0.921875Z" fill="white"/>
</mask>
<g mask="url(#mask0_1_921)">
<path d="M54.1957 45.3458H40.2959C39.5277 45.3458 38.9028 44.7108 38.9028 43.9323C38.9028 43.1538 39.5277 42.5188 40.2959 42.5188H54.1957C56.4901 42.5188 58.3646 40.6238 58.3646 38.2884V35.4613C58.3646 34.6829 58.9894 34.0478 59.7576 34.0478H62.513C63.271 34.0478 63.8958 33.4127 63.8958 32.6343V15.6923C63.8958 14.9036 63.271 14.2788 62.513 14.2788H59.7576C58.9894 14.2788 58.3646 13.6437 58.3646 12.8652V10.0382C58.3646 7.70275 56.4901 5.79754 54.1957 5.79754H45.8578C45.0896 5.79754 44.4648 5.17272 44.4648 4.39425C44.4648 3.60554 45.0896 2.98071 45.8578 2.98071H54.1957C58.0266 2.98071 61.1404 6.14581 61.1404 10.0382V11.4517H62.513C64.8074 11.4517 66.6819 13.3569 66.6819 15.6923V32.6343C66.6819 34.9697 64.8074 36.8749 62.513 36.8749H61.1404V38.2884C61.1404 42.1808 58.0266 45.3458 54.1957 45.3458Z" fill="black"/>
</g>
<mask id="mask1_1_921" style="mask-type:luminance" maskUnits="userSpaceOnUse" x="0" y="0" width="29" height="46">
<path d="M0 0.921875H28.1376V45.4995H0V0.921875Z" fill="white"/>
</mask>
<g mask="url(#mask1_1_921)">
<path d="M18.0687 45.3458H6.95501C3.12412 45.3458 0 42.1808 0 38.2884V10.0382C0 6.14581 3.12412 2.98071 6.95501 2.98071H26.4065C27.1747 2.98071 27.7996 3.60554 27.7996 4.39425C27.7996 5.17272 27.1747 5.79754 26.4065 5.79754H6.95501C4.65033 5.79754 2.7861 7.70275 2.7861 10.0382V38.2884C2.7861 40.6238 4.65033 42.5188 6.95501 42.5188H18.0687C18.8369 42.5188 19.4617 43.1538 19.4617 43.9323C19.4617 44.7108 18.8369 45.3458 18.0687 45.3458Z" fill="black"/>
</g>
<mask id="mask2_1_921" style="mask-type:luminance" maskUnits="userSpaceOnUse" x="17" y="0" width="33" height="52">
<path d="M17.646 0H49.1126V51H17.646V0Z" fill="white"/>
</mask>
<g mask="url(#mask2_1_921)">
<path d="M25.8642 50.9898C25.6389 50.9898 25.4136 50.9386 25.2087 50.8259C24.6146 50.5084 24.3278 49.7914 24.5429 49.1358L30.3609 31.2208H19.4624C18.94 31.2208 18.4688 30.934 18.2332 30.4628C17.9874 30.0019 18.0283 29.4385 18.3151 29.0083L37.572 0.758029C37.951 0.204904 38.668 0.0102891 39.2724 0.266364C39.8767 0.542926 40.2147 1.20872 40.0713 1.86427L36.1585 19.9227H47.2619C47.7843 19.9227 48.2657 20.23 48.5013 20.7114C48.7369 21.1929 48.6755 21.7767 48.3579 22.1967L26.9602 50.4469C26.6939 50.8054 26.2842 50.9898 25.8642 50.9898ZM22.1153 28.3937H32.2866C32.7373 28.3937 33.1573 28.619 33.4134 28.9878C33.6797 29.3463 33.7514 29.8175 33.608 30.2579L29.7464 42.1398L44.4348 22.7498H34.4274C34.0074 22.7498 33.608 22.5552 33.3417 22.2172C33.0856 21.8894 32.9831 21.4489 33.0651 21.029L35.841 8.26616L22.1153 28.3937Z" fill="black"/>
</g>
</svg>
