<svg width="83" height="42" viewBox="0 0 83 42" fill="none" xmlns="http://www.w3.org/2000/svg">
<path fill-rule="evenodd" clip-rule="evenodd" d="M41.4852 13.1892C37.1936 13.1892 33.7031 16.7083 33.7031 21.038C33.7031 25.3582 37.1936 28.8772 41.4852 28.8772C45.7767 28.8772 49.2672 25.3582 49.2672 21.038C49.2672 16.7083 45.7767 13.1892 41.4852 13.1892ZM41.4852 30.7464C36.1827 30.7464 31.8721 26.4072 31.8721 21.0571C31.8721 15.7069 36.1827 11.3582 41.4852 11.3582C46.7971 11.3582 51.1078 15.7069 51.1078 21.0571C51.1078 26.3881 46.7971 30.7464 41.4852 30.7464Z" fill="black"/>
<path fill-rule="evenodd" clip-rule="evenodd" d="M41.4898 18.3962C40.0402 18.3962 38.8767 19.5883 38.8767 21.0379C38.8767 22.4971 40.0593 23.6796 41.4898 23.6796C42.9489 23.6796 44.1124 22.4875 44.1124 21.0379C44.1124 19.5883 42.9489 18.3962 41.4898 18.3962ZM41.4898 25.5393C39.0389 25.5393 37.0361 23.527 37.0361 21.057C37.0361 18.5774 39.0389 16.5652 41.4898 16.5652C43.9503 16.5652 45.9435 18.5774 45.9435 21.057C45.9435 23.527 43.9503 25.5393 41.4898 25.5393Z" fill="black"/>
<mask id="mask0_1_939" style="mask-type:luminance" maskUnits="userSpaceOnUse" x="0" y="0" width="13" height="43">
<path d="M0 0H12.2071V42H0V0Z" fill="white"/>
</mask>
<g mask="url(#mask0_1_939)">
<path fill-rule="evenodd" clip-rule="evenodd" d="M10.6713 42C10.4329 42 10.1944 41.9141 10.0132 41.7329C-1.29738 30.327 -1.29738 11.7684 10.0132 0.362374C10.3756 -2.29776e-05 10.9574 -2.29776e-05 11.3007 0.362374C11.6726 0.734309 11.6726 1.31605 11.3007 1.66891C0.705339 12.3501 0.705339 29.7452 11.3007 40.4073C11.6726 40.7793 11.6726 41.361 11.3007 41.7043C11.1386 41.9142 10.9097 42 10.6713 42Z" fill="black"/>
</g>
<path fill-rule="evenodd" clip-rule="evenodd" d="M15.9694 36.6689C15.731 36.6689 15.4926 36.5831 15.3114 36.3924C11.2392 32.2916 8.99805 26.846 8.99805 21.0572C8.99805 15.2684 11.2392 9.80381 15.3114 5.72207C15.6738 5.35013 16.2555 5.35013 16.5989 5.72207C16.9613 6.08446 16.9613 6.67575 16.5989 7.01907C12.8795 10.7766 10.8386 15.7643 10.8386 21.0572C10.8386 26.3501 12.8891 31.3379 16.5989 35.0954C16.9708 35.4578 16.9708 36.049 16.5989 36.3924C16.4367 36.5736 16.2079 36.6689 15.9694 36.6689Z" fill="black"/>
<path fill-rule="evenodd" clip-rule="evenodd" d="M21.2672 31.3188C21.0383 31.3188 20.7999 31.2235 20.6187 31.0423C17.9579 28.372 16.5083 24.8147 16.5083 21.0382C16.5083 17.2616 17.9579 13.7044 20.6187 11.0341C20.9811 10.6621 21.5628 10.6621 21.9061 11.0341C22.2685 11.3965 22.2685 11.9878 21.9061 12.3311C19.5982 14.6581 18.3394 17.7384 18.3394 21.0191C18.3394 24.2997 19.6173 27.3992 21.9061 29.7071C22.2685 30.079 22.2685 30.6608 21.9061 31.0041C21.744 31.2235 21.5056 31.3188 21.2672 31.3188Z" fill="black"/>
<path fill-rule="evenodd" clip-rule="evenodd" d="M26.5625 25.9877C26.324 25.9877 26.0856 25.8923 25.9044 25.7111C24.6742 24.4618 23.9971 22.8119 23.9971 21.0572C23.9971 19.2929 24.6742 17.643 25.9044 16.4032C26.2764 16.0313 26.8581 16.0313 27.2014 16.4032C27.5638 16.7656 27.5638 17.3569 27.2014 17.7002C25.3608 19.5504 25.3608 22.5544 27.2014 24.4046C27.5638 24.7765 27.5638 25.3583 27.2014 25.7111C27.0393 25.8923 26.8009 25.9877 26.5625 25.9877Z" fill="black"/>
<mask id="mask1_1_939" style="mask-type:luminance" maskUnits="userSpaceOnUse" x="70" y="0" width="14" height="43">
<path d="M70.8018 0H83.0088V42H70.8018V0Z" fill="white"/>
</mask>
<g mask="url(#mask1_1_939)">
<path fill-rule="evenodd" clip-rule="evenodd" d="M72.5753 42C72.3369 42 72.108 41.9142 71.9173 41.733C71.5549 41.361 71.5549 40.7793 71.9173 40.4264C82.5222 29.7452 82.5222 12.3501 71.9173 1.68801C71.5549 1.31608 71.5549 0.734334 71.9173 0.39101C72.2892 0.0190773 72.871 0.0190773 73.2143 0.39101C84.5154 11.7875 84.5154 30.3556 73.2143 41.752C73.0522 41.9142 72.8138 42 72.5753 42Z" fill="black"/>
</g>
<path fill-rule="evenodd" clip-rule="evenodd" d="M67.2819 36.6689C67.0531 36.6689 66.8146 36.5831 66.6334 36.3924C66.2615 36.03 66.2615 35.4387 66.6334 35.0954C70.3528 31.3379 72.3937 26.3501 72.3937 21.0572C72.3937 15.7643 70.3433 10.7766 66.6334 7.01907C66.2615 6.65667 66.2615 6.06539 66.6334 5.72207C66.9958 5.35013 67.5776 5.35013 67.9209 5.72207C76.3228 14.1907 76.3228 27.9523 67.9209 36.4019C67.7588 36.5736 67.5204 36.6689 67.2819 36.6689Z" fill="black"/>
<path fill-rule="evenodd" clip-rule="evenodd" d="M61.9845 31.3188C61.7461 31.3188 61.5077 31.2234 61.3265 31.0422C60.9641 30.6798 60.9641 30.0885 61.3265 29.7452C66.0949 24.9387 66.0949 17.1567 61.3265 12.3501C60.9641 11.9877 60.9641 11.3964 61.3265 11.0531C61.6889 10.6812 62.2706 10.6812 62.614 11.0531C68.0881 16.5654 68.0881 25.549 62.614 31.0613C62.4518 31.2234 62.2229 31.3188 61.9845 31.3188Z" fill="black"/>
<path fill-rule="evenodd" clip-rule="evenodd" d="M56.6916 25.9879C56.4531 25.9879 56.2147 25.8925 56.0335 25.7113C55.6711 25.3394 55.6711 24.7576 56.0335 24.4143C57.8741 22.5642 57.8741 19.5505 56.0335 17.7004C55.6711 17.338 55.6711 16.7467 56.0335 16.4034C56.3959 16.041 56.9777 16.041 57.321 16.4034C58.5608 17.6527 59.2379 19.3026 59.2379 21.0573C59.2379 22.8216 58.5608 24.4715 57.321 25.7113C57.1684 25.8925 56.93 25.9879 56.6916 25.9879Z" fill="black"/>
</svg>
