<svg width="53" height="60" viewBox="0 0 53 60" fill="none" xmlns="http://www.w3.org/2000/svg">
<path d="M39.4779 55.0628C39.3502 55.0628 39.2118 55.0415 39.0947 54.9883L38.7434 54.8392C33.251 52.5294 29.6958 47.1966 29.6958 41.2465V33.7955C29.6958 33.4549 29.8768 33.1355 30.1641 32.9546C30.9305 32.4756 31.5905 31.8156 32.0695 31.0493C32.2504 30.7619 32.5698 30.5916 32.9104 30.5916H46.0454C46.386 30.5916 46.7054 30.7619 46.8863 31.0493C47.3653 31.8156 48.0253 32.4756 48.7917 32.9546C49.0791 33.1355 49.2494 33.4549 49.2494 33.7955V41.2465C49.2494 47.1966 45.7048 52.5294 40.2124 54.8392L39.8611 54.9883C39.7334 55.0415 39.6056 55.0628 39.4779 55.0628ZM31.6756 34.3171V41.2465C31.6756 46.3877 34.7306 51.0073 39.4779 53.0084C44.2146 51.0073 47.2802 46.3877 47.2802 41.2465V34.3171C46.6096 33.8274 46.0135 33.2313 45.5239 32.5607H33.4319C32.9423 33.2313 32.3462 33.8274 31.6756 34.3171Z" fill="black"/>
<mask id="mask0_1_979" style="mask-type:luminance" maskUnits="userSpaceOnUse" x="10" y="0" width="20" height="11">
<path d="M10.2188 0H29.2933V10.2292H10.2188V0Z" fill="white"/>
</mask>
<g mask="url(#mask0_1_979)">
<path d="M25.8834 10.0482C25.3405 10.0482 24.8935 9.6118 24.8935 9.06894V7.19554C24.8935 4.31094 22.5517 1.96919 19.6671 1.96919C16.7825 1.96919 14.4301 4.31094 14.4301 7.19554V9.06894C14.4301 9.6118 13.9937 10.0482 13.4402 10.0482C12.8974 10.0482 12.4609 9.6118 12.4609 9.06894V7.19554C12.4609 3.22522 15.6862 0 19.6671 0C23.6374 0 26.8733 3.22522 26.8733 7.19554V9.06894C26.8733 9.6118 26.4262 10.0482 25.8834 10.0482Z" fill="black"/>
</g>
<path d="M3.49685 35.6796C2.95399 35.6796 2.51758 35.2432 2.51758 34.7003V23.9815C2.51758 14.5294 10.2134 6.84424 19.6762 6.84424C24.2532 6.84424 28.5642 8.62183 31.8 11.8577C35.0465 15.0936 36.8348 19.4045 36.8348 23.9815V24.1199C36.8348 24.6628 36.3877 25.1098 35.8449 25.1098C35.302 25.1098 34.8549 24.6628 34.8549 24.1199V23.9815C34.8549 19.9261 33.2796 16.1154 30.4056 13.2521C27.5423 10.3888 23.7317 8.81343 19.6762 8.81343C11.2991 8.81343 4.48677 15.6151 4.48677 23.9815V34.7003C4.48677 35.2432 4.05036 35.6796 3.49685 35.6796Z" fill="black"/>
<mask id="mask1_1_979" style="mask-type:luminance" maskUnits="userSpaceOnUse" x="0" y="32" width="30" height="25">
<path d="M0 32.0286H29.2931V56.553H0V32.0286Z" fill="white"/>
</mask>
<g mask="url(#mask1_1_979)">
<path d="M27.3183 54.7754H6.26392C2.82581 54.7754 0.0263672 51.9866 0.0263672 48.5485V39.1603C0.0263672 35.7222 2.82581 32.9333 6.26392 32.9333H23.2203C23.7631 32.9333 24.2102 33.3698 24.2102 33.9126C24.2102 34.4555 23.7631 34.9025 23.2203 34.9025H6.26392C3.91153 34.9025 1.99556 36.8079 1.99556 39.1603V48.5485C1.99556 50.9009 3.91153 52.8062 6.26392 52.8062H27.3183C27.8718 52.8062 28.3082 53.2427 28.3082 53.7855C28.3082 54.339 27.8718 54.7754 27.3183 54.7754Z" fill="black"/>
</g>
<path d="M24.6094 49.8048H10.0799C8.24909 49.8048 6.76953 48.3252 6.76953 46.4944V41.2148C6.76953 39.384 8.24909 37.8938 10.0799 37.8938H23.215C23.7578 37.8938 24.2049 38.3409 24.2049 38.8837C24.2049 39.4266 23.7578 39.8736 23.215 39.8736H10.0799C9.34545 39.8736 8.73873 40.4697 8.73873 41.2148V46.4944C8.73873 47.2395 9.34545 47.8356 10.0799 47.8356H24.6094C25.1522 47.8356 25.5993 48.2826 25.5993 48.8255C25.5993 49.3683 25.1522 49.8048 24.6094 49.8048Z" fill="black"/>
<path d="M23.3746 44.8337H7.74881C7.20595 44.8337 6.76953 44.3973 6.76953 43.8544C6.76953 43.3116 7.20595 42.8645 7.74881 42.8645H23.3746C23.9175 42.8645 24.3645 43.3116 24.3645 43.8544C24.3645 44.3973 23.9175 44.8337 23.3746 44.8337Z" fill="black"/>
<path d="M13.4422 46.0791C12.8993 46.0791 12.4629 45.6427 12.4629 45.0998V43.8544C12.4629 43.3116 12.8993 42.8645 13.4422 42.8645C13.9957 42.8645 14.4321 43.3116 14.4321 43.8544V45.0998C14.4321 45.6427 13.9957 46.0791 13.4422 46.0791Z" fill="black"/>
<path d="M23.1445 27.4517H15.1826C12.2447 27.4517 9.77526 25.3548 9.29626 22.4702L7.61447 12.3901C7.52931 11.8472 7.89122 11.3469 8.42343 11.2511C8.96629 11.166 9.46657 11.5279 9.56237 12.0601L11.2442 22.1509C11.5635 24.0775 13.2134 25.4719 15.1826 25.4719H23.1445C25.0285 25.4719 26.6358 24.1946 27.0403 22.3531L29.414 11.6769C29.5417 11.1447 30.0633 10.8147 30.5955 10.9318C31.1277 11.0489 31.4577 11.5704 31.3406 12.1027L28.9669 22.7895C28.3495 25.5358 25.9546 27.4517 23.1445 27.4517Z" fill="black"/>
<path d="M24.6368 17.51H14.6844C14.1415 17.51 13.7051 17.0629 13.7051 16.52C13.7051 15.9772 14.1415 15.5408 14.6844 15.5408H24.6368C25.1796 15.5408 25.6267 15.9772 25.6267 16.52C25.6267 17.0629 25.1796 17.51 24.6368 17.51Z" fill="black"/>
<path d="M22.1497 19.9901C21.6068 19.9901 21.1704 19.5537 21.1704 19.0108V16.52C21.1704 15.9772 21.6068 15.5408 22.1497 15.5408C22.7032 15.5408 23.1396 15.9772 23.1396 16.52V19.0108C23.1396 19.5537 22.7032 19.9901 22.1497 19.9901Z" fill="black"/>
<mask id="mask2_1_979" style="mask-type:luminance" maskUnits="userSpaceOnUse" x="23" y="26" width="31" height="34">
<path d="M23.8496 26.5789H53.0043V59.1078H23.8496V26.5789Z" fill="white"/>
</mask>
<g mask="url(#mask2_1_979)">
<path d="M39.4715 59.108C39.3437 59.108 39.2054 59.0867 39.0883 59.0335L37.2894 58.2778C30.4132 55.3825 25.9639 48.6979 25.9639 41.2469V31.1455C25.9639 30.592 26.4003 30.1555 26.9538 30.1555C28.2205 30.1555 29.253 29.123 29.253 27.8457C29.253 27.3029 29.7 26.8665 30.2429 26.8665H48.7001C49.2429 26.8665 49.6793 27.3029 49.6793 27.8457C49.6793 29.123 50.7225 30.1555 51.9892 30.1555C52.5427 30.1555 52.9791 30.592 52.9791 31.1455V41.2469C52.9791 48.6979 48.5298 55.3825 41.6536 58.2778L39.8547 59.0335C39.7269 59.0867 39.5992 59.108 39.4715 59.108ZM27.9331 32.0076V41.2469C27.9331 47.8996 31.9034 53.871 38.0558 56.4576L39.4715 57.0537L40.8872 56.4576C47.0396 53.871 51.0099 47.8996 51.0099 41.2469V32.0076C49.4345 31.6351 48.1998 30.4004 47.8272 28.8356H31.1157C30.7432 30.4004 29.5084 31.6351 27.9331 32.0076Z" fill="black"/>
</g>
<path d="M39.4717 47.5161C36.9809 47.5161 34.9585 45.483 34.9585 43.0029C34.9585 42.3749 35.1501 41.1721 36.8319 37.9362C37.7154 36.2331 38.5882 34.7961 38.6308 34.7429C38.8117 34.4449 39.1311 34.2639 39.4717 34.2639C39.8123 34.2639 40.1316 34.4449 40.3126 34.7429C40.3552 34.7961 41.228 36.2331 42.1115 37.9362C43.7933 41.1721 43.9849 42.3749 43.9849 43.0029C43.9849 45.483 41.9624 47.5161 39.4717 47.5161ZM39.4717 37.2017C38.2263 39.4158 36.9277 42.0662 36.9277 43.0029C36.9277 44.3973 38.0666 45.5362 39.4717 45.5362C40.8767 45.5362 42.0157 44.3973 42.0157 43.0029C42.0157 42.0662 40.7171 39.4158 39.4717 37.2017Z" fill="black"/>
</svg>
