<svg width="51" height="51" viewBox="0 0 51 51" fill="none" xmlns="http://www.w3.org/2000/svg">
<mask id="mask0_1_912" style="mask-type:luminance" maskUnits="userSpaceOnUse" x="0" y="0" width="51" height="52">
<path d="M0 0H51V51H0V0Z" fill="white"/>
</mask>
<g mask="url(#mask0_1_912)">
<path d="M25.5119 0C26.9255 0 28.339 -1.96713e-06 29.7526 0.010243C34.1263 0.0307278 36.7588 2.0486 37.6192 6.07411C37.947 7.60032 37.8138 9.82306 37.865 11.5132C37.865 11.6258 37.9572 11.718 38.0699 11.718C39.4425 11.7487 40.8867 11.7487 42.3822 11.718C44.482 11.6873 45.9058 11.8102 46.6433 12.0765C50.3205 13.4184 51.099 16.4605 50.9863 20.486C50.9761 20.8241 50.9658 28.2195 50.9761 42.6622C50.9761 43.625 50.9454 44.4547 50.8737 45.1512C50.5459 48.5724 47.8827 50.9181 44.6357 50.9693C43.1504 50.9898 36.7588 51 25.4915 51C14.2241 51 7.84273 50.9898 6.34725 50.959C3.10021 50.9078 0.437025 48.5622 0.119491 45.141C0.0477893 44.4342 0.0170609 43.6045 0.0170609 42.6519C0.0273033 28.2093 0.0273033 20.8138 0.0170609 20.4758C-0.095613 16.4503 0.682857 13.4081 4.3601 12.0663C5.0976 11.8 6.52138 11.677 8.6212 11.7078C10.1269 11.7385 11.5609 11.7385 12.9335 11.718C13.0462 11.718 13.1486 11.6258 13.1486 11.5132C13.1896 9.81281 13.0564 7.60032 13.3944 6.06387C14.2549 2.0486 16.8771 0.0204854 21.2508 0.010243C22.6746 -1.96713e-06 24.0882 0 25.5119 0ZM25.4812 4.24061C29.7833 4.24061 33.6859 3.28801 33.5322 8.55292C33.5322 8.65535 33.5322 9.57722 33.5322 11.3185C33.5322 11.5541 33.7166 11.7385 33.9317 11.7385H35.335C35.5501 11.7385 35.7242 11.5644 35.7345 11.3493C35.9291 6.88331 35.8164 2.35589 30.4593 2.06909C30.4286 2.06909 28.7692 2.06909 25.4812 2.06909C22.1932 2.07933 20.5338 2.07933 20.5031 2.07933C15.146 2.37638 15.0436 6.9038 15.2484 11.3698C15.2587 11.5849 15.4328 11.759 15.6479 11.759H17.041C17.2766 11.759 17.4507 11.5644 17.4507 11.339C17.4507 9.59771 17.4507 8.67584 17.4404 8.57341C17.2766 3.29825 21.1791 4.24061 25.4812 4.24061ZM31.709 7.1906C31.709 6.80136 31.4017 6.48383 31.0227 6.48383L20.0114 6.46335C19.6324 6.46335 19.3252 6.78088 19.3252 7.17011L19.3149 11.0215C19.3149 11.4107 19.6222 11.7283 20.0012 11.7283L31.0124 11.7487C31.3914 11.7487 31.6987 11.4415 31.6987 11.0522L31.709 7.1906ZM10.1064 48.5314V14.1559C10.1064 13.951 9.94255 13.7871 9.74793 13.7871H6.45992C4.02208 13.7871 2.03494 15.8664 2.03494 18.4374V44.2499C2.03494 46.8209 4.02208 48.9002 6.45992 48.9002H9.74793C9.94255 48.9002 10.1064 48.7363 10.1064 48.5314ZM38.961 14.1046C38.961 13.951 38.8381 13.8178 38.6742 13.8178H12.3599C12.2063 13.8178 12.0833 13.951 12.0833 14.1046V48.5622C12.0833 48.7158 12.2063 48.849 12.3599 48.849H38.6742C38.8381 48.849 38.961 48.7158 38.961 48.5622V14.1046ZM40.9482 14.0842L40.8867 48.5826C40.8867 48.7568 41.0199 48.9002 41.194 48.9002H44.4513C46.9506 48.9104 48.9685 46.7901 48.9787 44.1679L49.0197 18.5194C49.0299 15.9074 47.0018 13.7769 44.5127 13.7769L41.2555 13.7666C41.0813 13.7666 40.9482 13.91 40.9482 14.0842Z" fill="#050707"/>
</g>
<path d="M25.4849 22.4631C26.8164 22.4631 27.769 22.4836 28.3427 22.5553C28.6807 22.5963 28.947 22.8729 28.9777 23.2211C28.9982 23.426 29.0187 24.8702 29.0597 27.5437C29.0597 27.5846 29.0904 27.6359 29.1211 27.6666C29.1519 27.6973 29.2031 27.728 29.2338 27.728C31.856 27.7588 33.2696 27.7895 33.4744 27.81C33.8227 27.8407 34.089 28.1173 34.1197 28.4655C34.1914 29.0494 34.2222 30.0225 34.2222 31.3746C34.2222 32.7369 34.1914 33.71 34.1197 34.2938C34.089 34.6421 33.8227 34.9084 33.4744 34.9494C33.2696 34.9699 31.856 34.9903 29.2338 35.0313C29.2031 35.0313 29.1519 35.0723 29.1211 35.0928C29.0904 35.1235 29.0597 35.1645 29.0597 35.2157C29.0289 37.8891 28.9982 39.3334 28.9777 39.5382C28.947 39.8865 28.6807 40.1631 28.3427 40.204C27.769 40.2655 26.8164 40.3065 25.4849 40.3065C24.1533 40.3065 23.2007 40.2655 22.6271 40.204C22.289 40.1631 22.0227 39.8865 21.992 39.5382C21.9715 39.3334 21.951 37.8891 21.91 35.2157C21.91 35.1645 21.8793 35.1235 21.8486 35.0928C21.8281 35.0723 21.7769 35.0313 21.7359 35.0313C19.1137 34.9903 17.7002 34.9699 17.4953 34.9494C17.1573 34.9186 16.8807 34.6421 16.85 34.2938C16.7885 33.71 16.7476 32.7369 16.7476 31.3746C16.7476 30.0225 16.7885 29.0494 16.85 28.4655C16.8807 28.1173 17.1573 27.8407 17.4953 27.81C17.7002 27.7895 19.1137 27.769 21.7359 27.728C21.7769 27.728 21.8281 27.6973 21.8486 27.6666C21.8793 27.6359 21.91 27.5846 21.91 27.5437C21.951 24.8702 21.9715 23.426 21.992 23.2211C22.0227 22.8729 22.289 22.5963 22.6271 22.5553C23.2007 22.4836 24.1533 22.4631 25.4849 22.4631ZM23.6923 29.5513C23.6104 29.6332 23.5694 29.664 23.5592 29.664C22.2788 29.7357 20.8038 29.7562 19.1239 29.7459C18.9601 29.7459 18.8269 29.8688 18.8269 30.0327C18.8166 30.3503 18.8166 30.801 18.8166 31.395C18.8166 31.9891 18.8166 32.4398 18.8269 32.7574C18.8269 32.9213 18.9601 33.0442 19.1239 33.0442C20.8038 33.0237 22.2788 33.0442 23.5592 33.1159C23.5694 33.1159 23.6104 33.1568 23.6923 33.2388C23.7743 33.3207 23.805 33.3617 23.8152 33.372C23.8767 34.6831 23.8972 36.1888 23.8767 37.8994C23.8767 38.0633 24.0099 38.2067 24.1635 38.2067C24.4708 38.2067 24.9215 38.2169 25.5053 38.2169C26.0789 38.2169 26.5194 38.2067 26.8267 38.2067C26.9906 38.2067 27.1135 38.0633 27.1135 37.8994C27.1033 36.1888 27.1237 34.6831 27.1852 33.372C27.1852 33.3617 27.2262 33.3105 27.2979 33.2388C27.3798 33.1568 27.4208 33.1159 27.431 33.1159C28.7114 33.0442 30.1966 33.0237 31.8765 33.0442C32.0301 33.0442 32.1633 32.911 32.1633 32.7471C32.1735 32.4398 32.1735 31.9789 32.1735 31.395C32.1735 30.801 32.1735 30.34 32.1633 30.0327C32.1633 29.8688 32.0301 29.7357 31.8765 29.7357C30.1966 29.7562 28.7114 29.7357 27.431 29.664C27.4208 29.664 27.3798 29.6332 27.2979 29.5513C27.2262 29.4694 27.1852 29.4181 27.1852 29.4079C27.1135 28.107 27.093 26.5911 27.1135 24.8805C27.1135 24.7166 26.9906 24.5834 26.8267 24.5732C26.5194 24.5732 26.0687 24.5732 25.4951 24.5732C24.9215 24.5732 24.4708 24.5732 24.1635 24.5732C24.0099 24.5834 23.8767 24.7166 23.8767 24.8805C23.8972 26.5911 23.8767 28.107 23.805 29.4079C23.805 29.4181 23.7743 29.4694 23.6923 29.5513Z" fill="#050707"/>
</svg>
