<svg width="166" height="172" viewBox="0 0 166 172" fill="none" xmlns="http://www.w3.org/2000/svg">
<mask id="mask0_1_244" style="mask-type:luminance" maskUnits="userSpaceOnUse" x="0" y="0" width="166" height="172">
<path d="M0 0H165.206V171.078H0V0Z" fill="white"/>
</mask>
<g mask="url(#mask0_1_244)">
<path d="M165.206 85.5388H148.686V42.7643L104.631 0H16.5206V85.5388H0V138.999H16.5206V171.078H148.686V138.999H165.206V85.5388Z" fill="#CC0000"/>
</g>
<path d="M22.0273 165.729H143.179V138.999H22.0273V165.729ZM104.631 7.56838V42.7639H140.895L104.631 7.56838ZM99.1236 48.1119V5.34766H22.0273V85.5383H143.179V48.1119H99.1236ZM99.3114 111.525C99.3114 105.861 97.1524 101.919 93.721 99.4434C90.54 97.1106 86.4724 96.0104 80.1937 96.0104C76.4286 96.0104 72.8512 96.2549 70.1082 96.6827V128.16C71.9751 128.404 74.7181 128.639 78.5771 128.639C85.054 128.639 90.3418 127.304 93.8149 124.503C97.0064 121.885 99.3114 117.657 99.3114 111.525ZM80.1937 122.985C79.2655 122.985 78.2434 122.985 77.5967 122.842V101.868C78.2434 101.725 79.3176 101.583 80.9864 101.583C87.4007 101.583 91.4161 105.097 91.3639 111.759C91.3639 119.41 86.9626 123.026 80.1937 122.985ZM50.3544 116.985C54.7661 116.985 58.5313 115.946 61.0761 113.613C63.0369 111.8 64.1112 109.141 64.1112 106.004C64.1112 102.866 62.6927 100.197 60.5963 98.5775C58.3853 96.8661 55.0999 96.0104 50.5004 96.0104C45.9426 96.0104 42.7094 96.3058 40.4045 96.6827V128.313H47.7991V116.842C48.4875 116.944 49.3636 116.985 50.3544 116.985ZM47.7991 101.766C48.3415 101.623 49.3636 101.481 50.8863 101.481C54.6097 101.481 56.7165 103.243 56.7165 106.187C56.7165 109.477 54.2655 111.423 50.3022 111.423C49.2176 111.423 48.4353 111.372 47.7991 111.23V101.766ZM125.625 102.194V96.2549H105.444V128.313H112.943V115.416H124.791V109.518H112.943V102.194H125.625Z" fill="white"/>
</svg>
